# xmcd CD database file
#
# Track frame offsets:
#	150
#	22567
#	43538
#	70240
#	81713
#	96603
#
# Disc length: 1573 seconds
#
# Revision: 0
# Processed by: cddbd v1.5.2PL0 Copyright (c) Steve Scherf et al.
# Submitted via: CDex 1.51
#
DISCID=49062306
DTITLE=The Long Gone Smiles Band - Nashville
DYEAR=2009
DGENRE=Country
TTITLE0=Nashville
TTITLE1=The Brakeman On The Memphis Trains
TTITLE2=Lost In Sorrow
TTITLE3=Why Did I Stray
TTITLE4=Honky Tonkin' Mama Of Yours
TTITLE5=There's A Horse Under My Saddle and The Badger
EXTD=YEAR: 2009
EXTT0=
EXTT1=
EXTT2=
EXTT3=
EXTT4=
EXTT5=
PLAYORDER=
